<svg xmlns="http://www.w3.org/2000/svg" width="65" height="30" viewBox="0 0 65 30">
  <metadata><?xpacket begin="﻿" id="W5M0MpCehiHzreSzNTczkc9d"?>
<x:xmpmeta xmlns:x="adobe:ns:meta/" x:xmptk="Adobe XMP Core 5.6-c142 79.160924, 2017/07/13-01:06:39        ">
   <rdf:RDF xmlns:rdf="http://www.w3.org/1999/02/22-rdf-syntax-ns#">
      <rdf:Description rdf:about=""/>
   </rdf:RDF>
</x:xmpmeta>
                                                                                                    
                                                                                                    
                                                                                                    
                                                                                                    
                                                                                                    
                                                                                                    
                                                                                                    
                                                                                                    
                                                                                                    
                                                                                                    
                                                                                                    
                                                                                                    
                                                                                                    
                                                                                                    
                                                                                                    
                                                                                                    
                                                                                                    
                                                                                                    
                                                                                                    
                                                                                                    
                           
<?xpacket end="w"?></metadata>
<defs>
    <style>
      .cls-1 {
        fill-rule: evenodd;
      }
    </style>
  </defs>
  <path class="cls-1" d="M441.083,1175.08a5.46,5.46,0,1,1-5.416,5.46A5.445,5.445,0,0,1,441.083,1175.08Zm0,8.74a3.28,3.28,0,1,0-3.25-3.28A3.274,3.274,0,0,0,441.083,1183.82Zm36.834-8.74a5.46,5.46,0,1,1-5.417,5.46A5.445,5.445,0,0,1,477.917,1175.08Zm0,8.74a3.28,3.28,0,1,0-3.25-3.28A3.274,3.274,0,0,0,477.917,1183.82Zm-49.834-8.74v-6.56a1.1,1.1,0,0,1,.741-1.04l6.114-2.05c2.3-3.93,5.466-7.67,12.459-8.91a0.057,0.057,0,0,0,.039-0.01c12.913-1.8,22.609,1.14,28.834,8.74,7.2,0.1,14.647,2.39,14.647,6.55v3.28a1.082,1.082,0,0,1,1.083,1.09v4.37a1.088,1.088,0,0,1-1.083,1.09h-4.334a1.088,1.088,0,0,1-1.083-1.09,7.583,7.583,0,1,0-15.166,0,1.089,1.089,0,0,1-1.084,1.09h-19.5a1.088,1.088,0,0,1-1.083-1.09,7.584,7.584,0,1,0-15.167,0,1.088,1.088,0,0,1-1.083,1.09h-4.333a1.089,1.089,0,0,1-1.084-1.09v-4.37A1.082,1.082,0,0,1,428.083,1175.08Zm14.031-14.36a14.652,14.652,0,0,0-4.5,4.52h4.543Zm13.053-2.53a47.437,47.437,0,0,0-7.416.49,17.687,17.687,0,0,0-3.482.97l0.053,5.59h10.845v-7.05Zm2.166,0.09v6.96h16.01C469.327,1161.07,464.031,1158.76,457.333,1158.28Zm-28.166,21.17h2.226a9.742,9.742,0,0,1,19.381,0h17.452a9.742,9.742,0,0,1,19.381,0h2.226v-2.19a1.088,1.088,0,0,1-1.083-1.09v-3.28h-1.083a1.09,1.09,0,0,1,0-2.18h0.561c-1.466-1.61-5.95-3.28-12.478-3.28H435.843l-5.593,1.88v1.4h1.083a1.09,1.09,0,0,1,0,2.18H430.25v3.28a1.088,1.088,0,0,1-1.083,1.09v2.19Z" transform="translate(-427 -1156)"/>
</svg>
