<svg xmlns="http://www.w3.org/2000/svg" xmlns:xlink="http://www.w3.org/1999/xlink" width="26.97" height="25" viewBox="0 0 26.97 25">
  <metadata><?xpacket begin="﻿" id="W5M0MpCehiHzreSzNTczkc9d"?>
<x:xmpmeta xmlns:x="adobe:ns:meta/" x:xmptk="Adobe XMP Core 5.6-c142 79.160924, 2017/07/13-01:06:39        ">
   <rdf:RDF xmlns:rdf="http://www.w3.org/1999/02/22-rdf-syntax-ns#">
      <rdf:Description rdf:about=""/>
   </rdf:RDF>
</x:xmpmeta>
                                                                                                    
                                                                                                    
                                                                                                    
                                                                                                    
                                                                                                    
                                                                                                    
                                                                                                    
                                                                                                    
                                                                                                    
                                                                                                    
                                                                                                    
                                                                                                    
                                                                                                    
                                                                                                    
                                                                                                    
                                                                                                    
                                                                                                    
                                                                                                    
                                                                                                    
                                                                                                    
                           
<?xpacket end="w"?></metadata>
<defs>
    <style>
      .cls-1 {
        fill-rule: evenodd;
        filter: url(#filter);
      }
    </style>
    <filter id="filter" x="1497" y="24" width="26.97" height="25" filterUnits="userSpaceOnUse">
      <feFlood result="flood" flood-color="#ffde00"/>
      <feComposite result="composite" operator="in" in2="SourceGraphic"/>
      <feBlend result="blend" in2="SourceGraphic"/>
    </filter>
  </defs>
  <path class="cls-1" d="M1508.32,44.248a2.376,2.376,0,1,0,2.37,2.376A2.382,2.382,0,0,0,1508.32,44.248Zm0,3.425a1.049,1.049,0,1,1,1.05-1.049A1.05,1.05,0,0,1,1508.32,47.673Zm8.32-3.425a2.376,2.376,0,1,0,2.38,2.376A2.374,2.374,0,0,0,1516.64,44.248Zm0,3.425a1.049,1.049,0,1,1,1.05-1.049A1.05,1.05,0,0,1,1516.64,47.673Zm0.59-15.934h-9.5a0.663,0.663,0,0,0,0,1.327h9.5A0.663,0.663,0,0,0,1517.23,31.739Zm-0.52,3.444h-8.46a0.663,0.663,0,0,0,0,1.327h8.46A0.663,0.663,0,0,0,1516.71,35.183Zm6.98-6.4a1.321,1.321,0,0,0-1.03-.489h-20.64l-0.41-2.026a1.347,1.347,0,0,0-.77-0.949l-2.91-1.264a0.664,0.664,0,0,0-.53,1.217l2.91,1.264,3.2,15.579a1.341,1.341,0,0,0,1.3,1.059h15.88a0.663,0.663,0,0,0,0-1.327h-15.88l-0.39-1.9h16.39a1.332,1.332,0,0,0,1.3-1.059l1.85-9.006A1.334,1.334,0,0,0,1523.69,28.784Zm-2.88,9.843h-16.66l-1.85-9.005h20.36Z" transform="translate(-1497 -24)"/>
</svg>
