<svg xmlns="http://www.w3.org/2000/svg" width="19" height="18" viewBox="0 0 19 18">
  <metadata><?xpacket begin="﻿" id="W5M0MpCehiHzreSzNTczkc9d"?>
<x:xmpmeta xmlns:x="adobe:ns:meta/" x:xmptk="Adobe XMP Core 5.6-c142 79.160924, 2017/07/13-01:06:39        ">
   <rdf:RDF xmlns:rdf="http://www.w3.org/1999/02/22-rdf-syntax-ns#">
      <rdf:Description rdf:about=""/>
   </rdf:RDF>
</x:xmpmeta>
                                                                                                    
                                                                                                    
                                                                                                    
                                                                                                    
                                                                                                    
                                                                                                    
                                                                                                    
                                                                                                    
                                                                                                    
                                                                                                    
                                                                                                    
                                                                                                    
                                                                                                    
                                                                                                    
                                                                                                    
                                                                                                    
                                                                                                    
                                                                                                    
                                                                                                    
                                                                                                    
                           
<?xpacket end="w"?></metadata>
<defs>
    <style>
      .cls-1 {
        fill-rule: evenodd;
      }
    </style>
  </defs>
  <path id="Shape_1_копия_3" data-name="Shape 1 копия 3" class="cls-1" d="M413.973,561.579a1.711,1.711,0,1,0,1.672,1.71A1.693,1.693,0,0,0,413.973,561.579Zm0,2.466a0.756,0.756,0,1,1,.738-0.756A0.749,0.749,0,0,1,413.973,564.045Zm5.865-2.466a1.711,1.711,0,1,0,1.673,1.71A1.693,1.693,0,0,0,419.838,561.579Zm0,2.466a0.756,0.756,0,1,1,.739-0.756A0.748,0.748,0,0,1,419.838,564.045Zm0.412-11.473h-6.69a0.478,0.478,0,0,0,0,.955h6.69A0.478,0.478,0,0,0,420.25,552.572Zm-0.364,2.48h-5.962a0.478,0.478,0,0,0,0,.955h5.962A0.478,0.478,0,0,0,419.886,555.052Zm4.918-4.608a0.924,0.924,0,0,0-.724-0.352H409.538l-0.293-1.458a0.954,0.954,0,0,0-.543-0.683l-2.049-.91a0.463,0.463,0,0,0-.614.247,0.482,0.482,0,0,0,.242.629l2.049,0.91,2.259,11.217a0.944,0.944,0,0,0,.915.762h11.184a0.478,0.478,0,0,0,0-.955H411.5l-0.275-1.364h11.545a0.943,0.943,0,0,0,.915-0.763L425,551.24A0.968,0.968,0,0,0,424.8,550.444Zm-2.03,7.087H411.037l-1.306-6.484H424.08Z" transform="translate(-406 -547)"/>
</svg>
