<svg xmlns="http://www.w3.org/2000/svg" width="58" height="58" viewBox="0 0 58 58">
  <metadata><?xpacket begin="﻿" id="W5M0MpCehiHzreSzNTczkc9d"?>
<x:xmpmeta xmlns:x="adobe:ns:meta/" x:xmptk="Adobe XMP Core 5.6-c142 79.160924, 2017/07/13-01:06:39        ">
   <rdf:RDF xmlns:rdf="http://www.w3.org/1999/02/22-rdf-syntax-ns#">
      <rdf:Description rdf:about=""/>
   </rdf:RDF>
</x:xmpmeta>
                                                                                                    
                                                                                                    
                                                                                                    
                                                                                                    
                                                                                                    
                                                                                                    
                                                                                                    
                                                                                                    
                                                                                                    
                                                                                                    
                                                                                                    
                                                                                                    
                                                                                                    
                                                                                                    
                                                                                                    
                                                                                                    
                                                                                                    
                                                                                                    
                                                                                                    
                                                                                                    
                           
<?xpacket end="w"?></metadata>
<defs>
    <style>
      .cls-1 {
        stroke: #000;
        stroke-linejoin: round;
        stroke-opacity: 0.4;
        stroke-width: 1px;
        fill-rule: evenodd;
      }
    </style>
  </defs>
  <path id="Forma_1" data-name="Forma 1" class="cls-1" d="M498.877,1399.4a0.568,0.568,0,0,1,.057-0.07,0.7,0.7,0,0,0,.018-0.1,0.43,0.43,0,0,0-.014-0.07,0.389,0.389,0,0,0-.028-0.08,0.294,0.294,0,0,0-.047-0.07c-0.017-.02-0.03-0.05-0.049-0.07s-0.047-.03-0.072-0.05-0.032-.03-0.052-0.04c0,0-.007,0-0.011-0.01s-0.009-.01-0.014-0.01l-26.057-13.76a0.621,0.621,0,0,0-.605.01l-25.531,13.75c0,0.01-.007.01-0.01,0.01s-0.007,0-.009.01c-0.021.01-.037,0.03-0.056,0.04s-0.05.03-.071,0.05-0.032.05-.048,0.07a0.287,0.287,0,0,0-.056.07,0.713,0.713,0,0,0-.031.07,0.685,0.685,0,0,0-.034.08c-0.008.03-.076,0.06-0.08,0.09s-0.077.05-.077,0.08h0v23.01h0.142c0,0.65.109,0.68,0.317,0.8l25.533,14.65a0.688,0.688,0,0,0,.319.14,0.667,0.667,0,0,0,.313-0.05l26.054-14.76c0.212-.11.322-0.13,0.322-0.78h-0.123V1399.4h0Zm-51.587,1.12,24.5,13.8v21.98l-24.5-13.8v-21.98Zm25.793,13.8,4.573-2.62,19.931-11.19v21.98l-24.5,13.82v-21.99Zm-0.77-1.12-12.216-6.95,24.635-13.31,12.277,6.48Zm0-26.82,11.045,5.83-24.583,13.28-10.662-6.07Zm-4,29.68-18.058-10.33a0.691,0.691,0,0,0-1.027.56v11.96a0.69,0.69,0,0,0,.374.56l18.116,10.32a0.765,0.765,0,0,0,.331.08,0.439,0.439,0,0,0,.264-0.09,0.6,0.6,0,0,0,.26-0.56v-11.94A0.587,0.587,0,0,0,468.309,1416.06Zm-1.029,11.39-16.766-9.58V1407.4l16.766,9.59v10.46Z" transform="translate(-443.5 -1382.5)"/>
</svg>
