<svg xmlns="http://www.w3.org/2000/svg" xmlns:xlink="http://www.w3.org/1999/xlink" width="43" height="43" viewBox="0 0 43 43">
  <metadata><?xpacket begin="﻿" id="W5M0MpCehiHzreSzNTczkc9d"?>
<x:xmpmeta xmlns:x="adobe:ns:meta/" x:xmptk="Adobe XMP Core 5.6-c142 79.160924, 2017/07/13-01:06:39        ">
   <rdf:RDF xmlns:rdf="http://www.w3.org/1999/02/22-rdf-syntax-ns#">
      <rdf:Description rdf:about=""/>
   </rdf:RDF>
</x:xmpmeta>
                                                                                                    
                                                                                                    
                                                                                                    
                                                                                                    
                                                                                                    
                                                                                                    
                                                                                                    
                                                                                                    
                                                                                                    
                                                                                                    
                                                                                                    
                                                                                                    
                                                                                                    
                                                                                                    
                                                                                                    
                                                                                                    
                                                                                                    
                                                                                                    
                                                                                                    
                                                                                                    
                           
<?xpacket end="w"?></metadata>
<defs>
    <style>
      .cls-1 {
        fill-rule: evenodd;
        filter: url(#filter);
      }
    </style>
    <filter id="filter" x="1327" y="1597" width="43" height="43" filterUnits="userSpaceOnUse">
      <feFlood result="flood"/>
      <feComposite result="composite" operator="in" in2="SourceGraphic"/>
      <feBlend result="blend" in2="SourceGraphic"/>
    </filter>
  </defs>
  <path id="Forma_1" data-name="Forma 1" class="cls-1" d="M1364.63,1604.81a0.845,0.845,0,0,0,.84-0.84v-4.45a2.529,2.529,0,0,0-2.52-2.52h-33.43a2.522,2.522,0,0,0-2.52,2.52v37.96a2.522,2.522,0,0,0,2.52,2.52h33.43a2.529,2.529,0,0,0,2.52-2.52v-2.35a0.84,0.84,0,0,0-1.68,0v2.35a0.845,0.845,0,0,1-.84.84h-33.43a0.845,0.845,0,0,1-.84-0.84v-37.96a0.845,0.845,0,0,1,.84-0.84h33.43a0.845,0.845,0,0,1,.84.84v4.45A0.839,0.839,0,0,0,1364.63,1604.81Zm-4.04-3.78h-28.72a0.845,0.845,0,0,0-.84.84v17.55a0.84,0.84,0,1,0,1.68,0v-16.71h27.04v1.34a0.84,0.84,0,1,0,1.68,0v-2.18A0.839,0.839,0,0,0,1360.59,1601.03Zm-28.13,20.91a0.821,0.821,0,1,0,.25.59A0.816,0.816,0,0,0,1332.46,1621.94Zm28.13,10.5a0.845,0.845,0,0,0-.84.84v1.01h-27.04v-8.53a0.84,0.84,0,1,0-1.68,0v9.37a0.845,0.845,0,0,0,.84.84h28.72a0.839,0.839,0,0,0,.84-0.84v-1.85A0.839,0.839,0,0,0,1360.59,1632.44Zm-7.56-5.77a0.858,0.858,0,0,0-1.19,0l-1.66,1.66-1.03-1.03a1.672,1.672,0,0,0-2.36,0l-0.68.67a0.858,0.858,0,0,0,0,1.19,0.839,0.839,0,0,0,1.19,0l0.67-.66,1.03,1.03a1.666,1.666,0,0,0,2.36,0l1.67-1.67A0.839,0.839,0,0,0,1353.03,1626.67Zm16.58-12.05a2.483,2.483,0,0,0,.31-1.95,2.429,2.429,0,0,0-1.24-1.54,0.748,0.748,0,0,1-.41-0.71,2.45,2.45,0,0,0-2.56-2.56,0.755,0.755,0,0,1-.71-0.41,2.48,2.48,0,0,0-1.54-1.24,2.439,2.439,0,0,0-1.95.3,0.76,0.76,0,0,1-.82,0,2.442,2.442,0,0,0-3.49.94,0.788,0.788,0,0,1-.72.41,2.435,2.435,0,0,0-2.55,2.56,0.783,0.783,0,0,1-.41.71,2.429,2.429,0,0,0-1.24,1.54,2.39,2.39,0,0,0-.06.96h-14.66a0.84,0.84,0,1,0,0,1.68h15.09a0.826,0.826,0,0,1-.07.13,2.439,2.439,0,0,0-.3,1.95,1.426,1.426,0,0,0,.09.27h-14.81a0.84,0.84,0,0,0,0,1.68h16.32a0.808,0.808,0,0,1,.05.31,2.434,2.434,0,0,0,2.55,2.55,0.77,0.77,0,0,1,.72.41,2.013,2.013,0,0,0,.37.53v7.85a0.824,0.824,0,0,0,.52.77,0.832,0.832,0,0,0,.91-0.18l2.1-2.08,2.09,2.08a0.857,0.857,0,0,0,.6.25,0.773,0.773,0,0,0,.32-0.07,0.83,0.83,0,0,0,.51-0.77v-7.85a2.045,2.045,0,0,0,.38-0.53,0.783,0.783,0,0,1,.71-0.41,2.45,2.45,0,0,0,2.56-2.56,0.748,0.748,0,0,1,.41-0.71,2.429,2.429,0,0,0,1.24-1.54,2.483,2.483,0,0,0-.31-1.95A0.76,0.76,0,0,1,1369.61,1614.62Zm-6.66,14.35-1.26-1.25a0.827,0.827,0,0,0-1.18,0l-1.26,1.25v-5.04a2.535,2.535,0,0,0,1.44-.38,0.76,0.76,0,0,1,.82,0,2.5,2.5,0,0,0,1.32.38h0.12v5.04h0Zm5.34-12.01a0.735,0.735,0,0,1-.38.48,2.431,2.431,0,0,0-1.32,2.28,0.756,0.756,0,0,1-.8.8,2.438,2.438,0,0,0-2.28,1.32,0.781,0.781,0,0,1-.48.39,0.77,0.77,0,0,1-.61-0.1,2.483,2.483,0,0,0-2.64,0,0.77,0.77,0,0,1-.61.1,0.781,0.781,0,0,1-.48-0.39,2.453,2.453,0,0,0-2.29-1.32,0.76,0.76,0,0,1-.57-0.22,0.783,0.783,0,0,1-.22-0.58,2.456,2.456,0,0,0-.67-1.79,0.151,0.151,0,0,1-.04-0.04,2.471,2.471,0,0,0-.61-0.45,0.75,0.75,0,0,1-.39-0.48,0.732,0.732,0,0,1,.1-0.61,2.469,2.469,0,0,0,0-2.64,0.732,0.732,0,0,1-.1-0.61,0.75,0.75,0,0,1,.39-0.48,2.465,2.465,0,0,0,1.32-2.28,0.783,0.783,0,0,1,.22-0.58,0.76,0.76,0,0,1,.57-0.22,2.453,2.453,0,0,0,2.29-1.32,0.781,0.781,0,0,1,.48-0.39,0.77,0.77,0,0,1,.61.1,2.469,2.469,0,0,0,2.64,0,0.77,0.77,0,0,1,.61-0.1,0.781,0.781,0,0,1,.48.39,2.438,2.438,0,0,0,2.28,1.32,0.756,0.756,0,0,1,.8.8,2.431,2.431,0,0,0,1.32,2.28,0.774,0.774,0,0,1,.29,1.09,2.469,2.469,0,0,0,0,2.64A0.729,0.729,0,0,1,1368.29,1616.96Zm-3.2-4.21a0.839,0.839,0,0,0-1.19,0l-2.78,2.78-1.11-1.11a0.858,0.858,0,0,0-1.19,0,0.839,0.839,0,0,0,0,1.19l1.7,1.7a0.832,0.832,0,0,0,.6.25,0.81,0.81,0,0,0,.59-0.25l3.38-3.38A0.827,0.827,0,0,0,1365.09,1612.75Zm-27.84-5.59a0.816,0.816,0,0,0-.59-0.25,0.84,0.84,0,1,0,0,1.68A0.834,0.834,0,0,0,1337.25,1607.16Zm6.63-.25h-4.09a0.84,0.84,0,0,0,0,1.68h4.09A0.84,0.84,0,0,0,1343.88,1606.91Zm8.55,14.78h-9.6a0.84,0.84,0,1,0,0,1.68h9.6A0.84,0.84,0,0,0,1352.43,1621.69Z" transform="translate(-1327 -1597)"/>
</svg>
