<svg xmlns="http://www.w3.org/2000/svg" xmlns:xlink="http://www.w3.org/1999/xlink" width="45" height="40" viewBox="0 0 45 40">
  <metadata><?xpacket begin="﻿" id="W5M0MpCehiHzreSzNTczkc9d"?>
<x:xmpmeta xmlns:x="adobe:ns:meta/" x:xmptk="Adobe XMP Core 5.6-c142 79.160924, 2017/07/13-01:06:39        ">
   <rdf:RDF xmlns:rdf="http://www.w3.org/1999/02/22-rdf-syntax-ns#">
      <rdf:Description rdf:about=""/>
   </rdf:RDF>
</x:xmpmeta>
                                                                                                    
                                                                                                    
                                                                                                    
                                                                                                    
                                                                                                    
                                                                                                    
                                                                                                    
                                                                                                    
                                                                                                    
                                                                                                    
                                                                                                    
                                                                                                    
                                                                                                    
                                                                                                    
                                                                                                    
                                                                                                    
                                                                                                    
                                                                                                    
                                                                                                    
                                                                                                    
                           
<?xpacket end="w"?></metadata>
<defs>
    <style>
      .cls-1 {
        fill-rule: evenodd;
        filter: url(#filter);
      }
    </style>
    <filter id="filter" x="937" y="1599" width="45" height="40" filterUnits="userSpaceOnUse">
      <feFlood result="flood"/>
      <feComposite result="composite" operator="in" in2="SourceGraphic"/>
      <feBlend result="blend" in2="SourceGraphic"/>
    </filter>
  </defs>
  <path id="Forma_1" data-name="Forma 1" class="cls-1" d="M981.992,1612.33c-0.075-1.26-1.6-2.25-4.653-3.01a1.645,1.645,0,0,0,.161-0.69v-5.19h-0.013c-0.268-4.31-18.18-4.44-20.237-4.44s-19.969.13-20.237,4.44H937v0.1h0v5.09c0,1.41,1.843,2.51,4.579,3.33a1.6,1.6,0,0,0-.068.37H941.5v0.1h0v5.08c-2.948.75-4.42,1.72-4.493,2.97H937v0.1h0v5.09c0,0.98.9,1.81,2.361,2.5a1.578,1.578,0,0,0-.1.46H939.25v0.1h0v5.08c0.006,2.47,5.623,4,11.863,4.71a0.632,0.632,0,0,0,.137.03c0.014,0,.026-0.01.04-0.01,1.2,0.14,2.426.24,3.636,0.31a0.2,0.2,0,0,0,.074.02c0.014,0,.025-0.01.039-0.01,1.536,0.09,3.047.14,4.461,0.14s2.925-.05,4.461-0.14c0.013,0,.025.01,0.039,0.01a0.2,0.2,0,0,0,.074-0.02c1.21-.07,2.432-0.17,3.635-0.31,0.015,0,.027.01,0.041,0.01a0.61,0.61,0,0,0,.136-0.03c6.241-.71,11.857-2.24,11.864-4.71v-5.18h-0.012c-0.053-.91-0.836-1.67-2.384-2.3a1.649,1.649,0,0,0,.146-0.67v-4.84c2.692-.82,4.5-1.91,4.5-3.3v-5.19h-0.008Zm-6.073,13.57-0.256.23a7,7,0,0,1-1.913,1.02v-3.53a11.554,11.554,0,0,0,2.25-1.02v3.06A0.442,0.442,0,0,1,975.919,1625.9Zm-16.775,3.45h-0.33c-0.267.01-.542,0.01-0.813,0.01v-3.7c0.206,0,.412,0,0.618-0.01h0.12c0.755-.01,1.51-0.04,2.262-0.07v3.7c-0.161.01-.322,0.01-0.485,0.02C960.065,1629.32,959.609,1629.34,959.144,1629.35Zm-3.275.01-1.025-.03h-0.126c-0.409-.02-0.815-0.03-1.217-0.05v-3.7c0.751,0.04,1.506.06,2.262,0.07h0.118c0.206,0.01.413,0.01,0.619,0.01v3.7h-0.631Zm-13.546-1.69a0.2,0.2,0,0,0-.073-0.02v-3.58c0.7,0.19,1.453.36,2.25,0.51v3.62c-0.689-.15-1.324-0.3-1.9-0.46C942.506,1627.72,942.412,1627.69,942.323,1627.67Zm15.808,6.13c0.206,0.01.413,0.01,0.619,0.01v3.7c-1.037-.01-2.037-0.04-3-0.08v-3.7c0.751,0.03,1.507.06,2.262,0.07h0.119Zm2.857,0c0.755-.01,1.51-0.04,2.262-0.07v3.7c-0.963.04-1.964,0.07-3,.08v-3.7c0.206,0,.412-0.01.619-0.01h0.119Zm6.012-.33v3.67c-0.721.08-1.471,0.14-2.25,0.2v-3.7C965.51,1633.6,966.262,1633.54,967,1633.47Zm1.5-.17c0.773-.09,1.524-0.19,2.25-0.31v3.64c-0.707.12-1.457,0.24-2.25,0.34v-3.67Zm3.75-.57c0.8-.16,1.549-0.33,2.25-0.51v3.57c-0.668.2-1.421,0.38-2.25,0.55v-3.61Zm-25.5,0v3.61c-0.83-.17-1.582-0.35-2.25-0.55v-3.57C945.2,1632.4,945.953,1632.57,946.75,1632.73Zm1.5,0.26c0.726,0.12,1.477.22,2.25,0.32v3.66c-0.793-.1-1.544-0.22-2.25-0.34v-3.64Zm3.75,0.48c0.738,0.07,1.489.13,2.25,0.17v3.7c-0.779-.06-1.529-0.12-2.25-0.2v-3.67Zm-1.861-4.43-0.228-.03c-0.054,0-.107-0.01-0.161-0.01v-3.68q1.107,0.105,2.25.18v3.69Zm-1.889-3.88v3.66c-0.793-.1-1.544-0.22-2.25-0.34v-3.64C946.726,1624.96,947.477,1625.07,948.25,1625.16ZM963,1629.15c-0.165.02-.331,0.03-0.5,0.04v-3.69c0.76-.05,1.512-0.11,2.25-0.18V1629c-0.464.04-.938,0.09-1.424,0.13C963.217,1629.14,963.108,1629.15,963,1629.15Zm3.251-.33v-3.66c0.773-.1,1.524-0.2,2.25-0.32v3.64C967.793,1628.6,967.043,1628.72,966.25,1628.82Zm3.75-4.24c0.8-.16,1.549-0.33,2.25-0.51v3.58c-0.668.19-1.421,0.37-2.25,0.55v-3.62Zm-10.256-3.38c-0.564-.02-1.116-0.04-1.657-0.07H958v-3.7c0.751,0.04,1.507.06,2.262,0.07,0.04,0,.079.01,0.118,0.01H961v3.7c-0.365,0-.733,0-1.09-0.01h-0.165Zm-17.494-10.59v-3.58c0.7,0.19,1.453.36,2.25,0.51v3.62l-0.278-.06c-0.4-.09-0.788-0.18-1.16-0.27C942.779,1610.76,942.509,1610.68,942.25,1610.61Zm13.631-1.99c0.206,0,.413,0,0.619.01v3.69c-1.01-.01-2.013-0.03-3-0.08v-3.7c0.751,0.04,1.507.06,2.262,0.08h0.119Zm2.857-.01c0.755-.01,1.51-0.03,2.262-0.07v3.7c-0.128,0-.25.01-0.378,0.02H960.59c-0.5.02-1.017,0.04-1.536,0.05a1.975,1.975,0,0,0-.243.01c-0.267,0-.54,0-0.811.01v-3.7c0.206-.01.412-0.01,0.619-0.01A0.483,0.483,0,0,0,958.738,1608.61Zm17.09,0.38-0.021-.01-0.273.21a7.209,7.209,0,0,1-1.784.91v-3.52a11.554,11.554,0,0,0,2.25-1.02v3.06A0.583,0.583,0,0,1,975.828,1608.99Zm-9.578,2.79v-3.66c0.773-.09,1.524-0.2,2.25-0.31v3.63C967.789,1611.56,967.04,1611.68,966.25,1611.78Zm3.75-.63v-3.61c0.8-.15,1.549-0.32,2.25-0.51v3.57C971.578,1610.8,970.821,1610.98,970,1611.15Zm-5.25-2.87v3.67c-0.725.08-1.475,0.15-2.25,0.2v-3.69C963.26,1608.41,964.012,1608.35,964.75,1608.28Zm-15,3.68v-3.68q1.107,0.1,2.25.18v3.69C951.236,1612.09,950.483,1612.03,949.75,1611.96Zm-1.5-3.84v3.66l-0.45-.06a2.658,2.658,0,0,1-.282-0.04c-0.434-.06-0.857-0.12-1.273-0.19-0.083-.02-0.163-0.03-0.245-0.05v-3.63C946.726,1607.92,947.477,1608.03,948.25,1608.12Zm8.064,12.91c-0.1-.01-0.2-0.02-0.3-0.02-0.48-.04-0.949-0.08-1.406-0.13l-0.294-.03h-0.06v-3.68q1.107,0.105,2.25.18v3.69C956.439,1621.04,956.375,1621.03,956.314,1621.03Zm-4.955-.55c-0.3-.05-0.576-0.1-0.859-0.15v-3.63c0.726,0.11,1.477.22,2.25,0.31v3.66c-0.459-.06-0.908-0.12-1.34-0.19h-0.051ZM949,1616.43v3.61c-0.829-.17-1.58-0.36-2.25-0.56v-3.56C947.45,1616.11,948.2,1616.28,949,1616.43Zm-3.75-.96v3.52a4.675,4.675,0,0,1-2.187-1.32l-0.05-.08c0-.03-0.012-0.05-0.013-0.07v-3.07A11.554,11.554,0,0,0,945.25,1615.47Zm17.988,2.03c0.755-.01,1.51-0.03,2.262-0.07v3.7c-0.986.05-1.988,0.07-3,.08v-3.7h0.619C963.158,1617.51,963.2,1617.5,963.238,1617.5Zm9.692,2.85c-0.329.05-.661,0.11-1,0.16-0.2.03-.4,0.06-0.6,0.08s-0.387.05-.579,0.08v-3.66c0.773-.09,1.524-0.2,2.25-0.31v3.63C972.977,1620.34,972.953,1620.34,972.93,1620.35Zm-5.078.63-0.852.06v-3.69c0.76-.05,1.512-0.11,2.25-0.18v3.67c-0.436.05-.871,0.09-1.319,0.13C967.9,1620.97,967.879,1620.98,967.852,1620.98Zm8.571-1.39c-0.374.1-.769,0.2-1.172,0.29-0.187.05-.378,0.09-0.573,0.13a1.153,1.153,0,0,0-.177.04v-3.62c0.8-.15,1.549-0.32,2.25-0.51v3.58Zm4.069-7.21c-0.069.5-1.224,1.17-3.284,1.8h0a50.92,50.92,0,0,1-12.067,1.78l-0.813.03c-0.224.01-.449,0.02-0.678,0.02-0.621.02-1.251,0.03-1.9,0.03s-1.28-.01-1.9-0.03c-0.228,0-.453-0.01-0.678-0.02l-0.812-.03a50.911,50.911,0,0,1-12.067-1.78h0c-2.044-.62-3.2-1.29-3.282-1.79a0.341,0.341,0,0,1,.013-0.04l0.16,0.03c0.293,0.07.594,0.14,0.9,0.2,1.49,0.32,3.142.58,4.9,0.78H949c1.2,0.14,2.442.24,3.718,0.32h0.042c0.919,0.05,1.85.09,2.792,0.11,0.576,0.02,1.143.02,1.694,0.02,0.394,0,.8,0,1.2-0.01a58.085,58.085,0,0,0,14.015-1.71c0.162-.05.32-0.09,0.476-0.14l0.285-.09c0.272-.08.532-0.17,0.783-0.26a0.7,0.7,0,0,1,.128-0.05c0.213-.08.417-0.16,0.612-0.25a1.106,1.106,0,0,0,.168-0.07c0.208-.09.409-0.19,0.595-0.28,0.084-.05.157-0.09,0.236-0.14s0.18-.1.263-0.15c0.047-.03.1-0.06,0.148-0.09C979.521,1611.29,980.406,1612.07,980.492,1612.38Zm-23.242-11.9c12.367,0,18.622,1.92,18.739,3.03-0.091.5-1.242,1.16-3.281,1.78h0a50.92,50.92,0,0,1-12.067,1.78c-0.27.01-.538,0.03-0.813,0.03-0.224.01-.449,0.02-0.678,0.02-0.621.02-1.251,0.03-1.9,0.03s-1.28-.01-1.9-0.03c-0.228,0-.453-0.01-0.678-0.02-0.275,0-.543-0.02-0.812-0.03a50.911,50.911,0,0,1-12.067-1.78h0c-2.04-.62-3.19-1.28-3.281-1.78C938.628,1602.4,944.883,1600.48,957.25,1600.48Zm-18.75,8.15v-3.07a11.554,11.554,0,0,0,2.25,1.02v3.55C939.291,1609.58,938.5,1609.04,938.5,1608.63Zm3.633,10.25c0.011,0.01.028,0.02,0.04,0.03,1.026,1.03,3.153,1.83,5.8,2.43,0.061,0.01.126,0.03,0.187,0.04,0.194,0.04.392,0.09,0.591,0.13a58.319,58.319,0,0,0,8.494,1.06h0.008q1.524,0.09,3.115.12c0.469,0.01.931,0.01,1.383,0.01,0.517,0,1.048,0,1.588-.02,0.981-.02,1.948-0.06,2.9-0.11h0.03a59.019,59.019,0,0,0,8.658-1.1,12.617,12.617,0,0,1-2.219.86h0a52.106,52.106,0,0,1-12.961,1.81c-0.168.01-.335,0.02-0.506,0.02s-0.37.01-.557,0.01c-0.472.01-.947,0.01-1.434,0.01-0.65,0-1.28,0-1.9-.02-0.228,0-.453-0.01-0.678-0.02l-0.812-.03a50.911,50.911,0,0,1-12.067-1.78h0c-2.063-.63-3.217-1.3-3.284-1.8C938.591,1620.25,939.35,1619.55,942.133,1618.88Zm-3.633,6.78v-3.06a11.554,11.554,0,0,0,2.25,1.02v3.53l-0.428-.17-0.009.01C939.135,1626.51,938.5,1626.04,938.5,1625.66Zm2.25,8.15v-3.07a10.479,10.479,0,0,0,2.25,1.02v3.55C941.541,1634.77,940.751,1634.23,940.75,1633.81Zm35.25,1.5v-3.55a10.479,10.479,0,0,0,2.25-1.02v3.07C978.249,1634.23,977.459,1634.77,976,1635.31Zm2.24-6.62c-0.082.5-1.234,1.16-3.282,1.79h0a50.92,50.92,0,0,1-12.067,1.78l-0.813.03c-0.224.01-.449,0.01-0.678,0.02-0.621.01-1.251,0.02-1.9,0.02s-1.28-.01-1.9-0.02c-0.226-.01-0.449-0.01-0.671-0.02l-0.818-.03a50.92,50.92,0,0,1-12.067-1.78h0c-1.984-.61-3.13-1.25-3.274-1.75,0.223,0.08.455,0.15,0.693,0.23,0.024,0.01.048,0.01,0.072,0.02q0.3,0.09.622,0.18l0.243,0.06c0.12,0.04.243,0.07,0.366,0.1a55.451,55.451,0,0,0,9.982,1.4h0.006c1.163,0.07,2.35.11,3.55,0.12,0.319,0.01.637,0.01,0.948,0.01,0.413,0,.836,0,1.264-0.01,1.1-.02,2.175-0.06,3.231-0.12h0.015c1.287-.08,2.532-0.19,3.728-0.32H965.5c0.016,0,.03-0.01.046-0.01,1.332-.15,2.6-0.34,3.767-0.56,0.242-.04.48-0.08,0.715-0.13l0.158-.03a20.41,20.41,0,0,0,5.447-1.75c0.072-.04.139-0.08,0.208-0.12s0.162-.1.24-0.15,0.155-.09.221-0.14C977.783,1628.03,978.191,1628.5,978.24,1628.69Zm0.01-9.68v-3.54a11.554,11.554,0,0,0,2.25-1.02v3.06C980.5,1617.93,979.709,1618.47,978.25,1619.01Z" transform="translate(-937 -1599)"/>
</svg>
