<svg xmlns="http://www.w3.org/2000/svg" width="48" height="55" viewBox="0 0 48 55">
  <metadata><?xpacket begin="﻿" id="W5M0MpCehiHzreSzNTczkc9d"?>
<x:xmpmeta xmlns:x="adobe:ns:meta/" x:xmptk="Adobe XMP Core 5.6-c142 79.160924, 2017/07/13-01:06:39        ">
   <rdf:RDF xmlns:rdf="http://www.w3.org/1999/02/22-rdf-syntax-ns#">
      <rdf:Description rdf:about=""/>
   </rdf:RDF>
</x:xmpmeta>
                                                                                                    
                                                                                                    
                                                                                                    
                                                                                                    
                                                                                                    
                                                                                                    
                                                                                                    
                                                                                                    
                                                                                                    
                                                                                                    
                                                                                                    
                                                                                                    
                                                                                                    
                                                                                                    
                                                                                                    
                                                                                                    
                                                                                                    
                                                                                                    
                                                                                                    
                                                                                                    
                           
<?xpacket end="w"?></metadata>
<defs>
    <style>
      .cls-1 {
        fill-rule: evenodd;
      }
    </style>
  </defs>
  <path id="Forma_1" data-name="Forma 1" class="cls-1" d="M492.2,658.472l-16.891-9.092a3.572,3.572,0,0,0-4.673,1.393l-9.882,18.251H448.737A2.7,2.7,0,0,0,446,671.745v29.534A2.7,2.7,0,0,0,448.737,704h38.389a2.7,2.7,0,0,0,2.738-2.721v-6.9H491a1.052,1.052,0,0,0,1.068-1.062v-7.9A1.052,1.052,0,0,0,491,684.355h-1.135V676.59a2.772,2.772,0,0,0-2.137-2.654l5.875-10.818A3.469,3.469,0,0,0,492.2,658.472Zm-12.017-4.049-10.549,19.446h-3l11.283-20.64Zm-7.611-2.654a1.318,1.318,0,0,1,1.736-.531l1.669,0.929-11.751,21.7h-3.672Zm-24.5,19.91a0.643,0.643,0,0,1,.6-0.531h10.883l-1.469,2.655H448.67a1.873,1.873,0,0,0-.6.066v-2.19Zm39.591,29.6a0.6,0.6,0,0,1-.6.6H448.67a0.6,0.6,0,0,1-.6-0.6V676.59a0.6,0.6,0,0,1,.6-0.6h38.323a0.6,0.6,0,0,1,.6.6v7.765h-4.073a3.2,3.2,0,0,0-3.205,3.186v3.65a3.2,3.2,0,0,0,3.205,3.186h4.139v6.9h0Zm2.137-14.8h0.067v5.774h-6.343a1.051,1.051,0,0,1-1.068-1.062v-3.65a1.051,1.051,0,0,1,1.068-1.062H489.8Zm1.869-24.423-6.409,11.813H472.038l10.014-18.384,9.08,4.912A1.157,1.157,0,0,1,491.666,662.056Zm-4.072-1-0.535-.265a2.932,2.932,0,0,0-3.872,1.128l-0.667,1.261a2.78,2.78,0,0,0-.2,2.19,2.681,2.681,0,0,0,1.4,1.659l0.534,0.266a3.057,3.057,0,0,0,1.336.332,3.008,3.008,0,0,0,2.537-1.46l0.667-1.261A2.965,2.965,0,0,0,487.594,661.06Zm-0.735,2.854-0.668,1.261a0.756,0.756,0,0,1-1,.266l-0.534-.332a0.984,0.984,0,0,1-.334-0.4,0.5,0.5,0,0,1,.067-0.531l0.668-1.261a0.883,0.883,0,0,1,.667-0.4,0.6,0.6,0,0,1,.334.067l0.534,0.265A1.028,1.028,0,0,1,486.859,663.914Z" transform="translate(-446 -649)"/>
</svg>
