<svg xmlns="http://www.w3.org/2000/svg" width="32" height="36" viewBox="0 0 32 36">
  <metadata><?xpacket begin="﻿" id="W5M0MpCehiHzreSzNTczkc9d"?>
<x:xmpmeta xmlns:x="adobe:ns:meta/" x:xmptk="Adobe XMP Core 5.6-c142 79.160924, 2017/07/13-01:06:39        ">
   <rdf:RDF xmlns:rdf="http://www.w3.org/1999/02/22-rdf-syntax-ns#">
      <rdf:Description rdf:about=""/>
   </rdf:RDF>
</x:xmpmeta>
                                                                                                    
                                                                                                    
                                                                                                    
                                                                                                    
                                                                                                    
                                                                                                    
                                                                                                    
                                                                                                    
                                                                                                    
                                                                                                    
                                                                                                    
                                                                                                    
                                                                                                    
                                                                                                    
                                                                                                    
                                                                                                    
                                                                                                    
                                                                                                    
                                                                                                    
                                                                                                    
                           
<?xpacket end="w"?></metadata>
<defs>
    <style>
      .cls-1 {
        fill-rule: evenodd;
      }
    </style>
  </defs>
  <path id="Forma_1" data-name="Forma 1" class="cls-1" d="M1121.8,345.2l-11.26-5.952a2.412,2.412,0,0,0-3.12.913l-6.58,11.946h-8.02a1.782,1.782,0,0,0-1.82,1.781v19.331a1.782,1.782,0,0,0,1.82,1.781h25.6a1.782,1.782,0,0,0,1.82-1.781V368.7H1121a0.693,0.693,0,0,0,.71-0.7v-5.169a0.693,0.693,0,0,0-.71-0.695h-0.76v-5.083a1.821,1.821,0,0,0-1.42-1.738l3.91-7.08A2.249,2.249,0,0,0,1121.8,345.2Zm-8.01-2.65-7.03,12.728h-2.01l7.53-13.51Zm-5.08-1.738a0.892,0.892,0,0,1,1.16-.347l1.11,0.608-7.83,14.205h-2.45Zm-16.33,13.032a0.427,0.427,0,0,1,.4-0.347h7.26l-0.98,1.738h-6.28a1.27,1.27,0,0,0-.4.043v-1.434Zm26.39,19.375a0.389,0.389,0,0,1-.4.391h-25.59a0.4,0.4,0,0,1-.4-0.391v-16.16a0.4,0.4,0,0,1,.4-0.391h25.55a0.4,0.4,0,0,1,.4.391v5.083h-2.72a2.107,2.107,0,0,0-2.13,2.085v2.389a2.111,2.111,0,0,0,2.13,2.085h2.76v4.518h0Zm1.43-9.687h0.04v3.779h-4.23a0.693,0.693,0,0,1-.71-0.695v-2.389a0.693,0.693,0,0,1,.71-0.695h4.19Zm1.24-15.986-4.27,7.732h-8.81l6.67-12.033,6.06,3.215A0.748,0.748,0,0,1,1121.44,347.546Zm-2.71-.652-0.36-.174a1.972,1.972,0,0,0-2.58.739l-0.44.825a1.756,1.756,0,0,0-.14,1.434,1.778,1.778,0,0,0,.94,1.086l0.35,0.173a2.072,2.072,0,0,0,.89.218,2.021,2.021,0,0,0,1.7-.956l0.44-.825A1.918,1.918,0,0,0,1118.73,346.894Zm-0.49,1.868-0.45.825a0.5,0.5,0,0,1-.66.174l-0.36-.217a0.6,0.6,0,0,1-.22-0.261,0.309,0.309,0,0,1,.04-0.347l0.45-.826a0.582,0.582,0,0,1,.44-0.26,0.439,0.439,0,0,1,.23.043l0.35,0.174A0.66,0.66,0,0,1,1118.24,348.762Z" transform="translate(-1091 -339)"/>
</svg>
