<svg xmlns="http://www.w3.org/2000/svg" width="43" height="30" viewBox="0 0 43 30">
  <metadata><?xpacket begin="﻿" id="W5M0MpCehiHzreSzNTczkc9d"?>
<x:xmpmeta xmlns:x="adobe:ns:meta/" x:xmptk="Adobe XMP Core 5.6-c142 79.160924, 2017/07/13-01:06:39        ">
   <rdf:RDF xmlns:rdf="http://www.w3.org/1999/02/22-rdf-syntax-ns#">
      <rdf:Description rdf:about=""/>
   </rdf:RDF>
</x:xmpmeta>
                                                                                                    
                                                                                                    
                                                                                                    
                                                                                                    
                                                                                                    
                                                                                                    
                                                                                                    
                                                                                                    
                                                                                                    
                                                                                                    
                                                                                                    
                                                                                                    
                                                                                                    
                                                                                                    
                                                                                                    
                                                                                                    
                                                                                                    
                                                                                                    
                                                                                                    
                                                                                                    
                           
<?xpacket end="w"?></metadata>
<defs>
    <style>
      .cls-1 {
        fill-rule: evenodd;
      }
    </style>
  </defs>
  <path class="cls-1" d="M826.155,363.935a3.927,3.927,0,0,0-2.8,1.183,4.048,4.048,0,0,0,0,5.7A3.981,3.981,0,1,0,826.155,363.935Zm0,6.273a2.241,2.241,0,0,1,0-4.481A2.242,2.242,0,0,1,826.155,370.208Zm1.015-19.7a0.835,0.835,0,0,0-.586-0.234h-4.492a0.889,0.889,0,0,0-.876.9v7.347a0.889,0.889,0,0,0,.876.9h7.127a0.889,0.889,0,0,0,.876-0.9V353.6a0.905,0.905,0,0,0-.289-0.663Zm1.174,7.114h-5.376v-5.564h3.274l2.1,1.935v3.629Zm-23.571,6.317a3.927,3.927,0,0,0-2.8,1.183,4.048,4.048,0,0,0,0,5.7A3.981,3.981,0,1,0,804.773,363.935Zm0,6.273a2.241,2.241,0,0,1,0-4.481A2.242,2.242,0,0,1,804.773,370.208Zm-5.84-5.17h-1.76v-2.384a0.876,0.876,0,1,0-1.751,0v3.28a0.889,0.889,0,0,0,.875.9h2.636A0.9,0.9,0,0,0,798.933,365.038Zm4.439-4.884a0.889,0.889,0,0,0-.876-0.9h-10.62a0.9,0.9,0,0,0,0,1.792H802.5A0.883,0.883,0,0,0,803.372,360.154Zm-9.719-3.235,10.621,0.063a0.894,0.894,0,0,0,.884-0.887,0.878,0.878,0,0,0-.867-0.905l-10.621-.063h-0.008A0.9,0.9,0,0,0,793.653,356.919Zm1.786-4.068H806.06a0.9,0.9,0,0,0,0-1.792H795.439A0.9,0.9,0,0,0,795.439,352.851Zm38.237-1.209h0l-6.269-5.314a0.848,0.848,0,0,0-.561-0.206h-7.372V342.9a0.889,0.889,0,0,0-.876-0.9H796.3a0.888,0.888,0,0,0-.875.9v6.559a0.876,0.876,0,1,0,1.751,0v-5.663h20.559v21.246h-7.18a0.9,0.9,0,0,0,0,1.792h10.691a0.9,0.9,0,0,0,0-1.792h-1.76V347.914h7.057l5.709,4.839-0.062,12.267h-0.91a0.9,0.9,0,0,0,0,1.792h1.777a0.881,0.881,0,0,0,.876-0.887L834,352.34A0.957,0.957,0,0,0,833.676,351.642Z" transform="translate(-791 -342)"/>
</svg>
