<svg xmlns="http://www.w3.org/2000/svg" width="38.093" height="39.531" viewBox="0 0 38.093 39.531">
  <metadata><?xpacket begin="﻿" id="W5M0MpCehiHzreSzNTczkc9d"?>
<x:xmpmeta xmlns:x="adobe:ns:meta/" x:xmptk="Adobe XMP Core 5.6-c142 79.160924, 2017/07/13-01:06:39        ">
   <rdf:RDF xmlns:rdf="http://www.w3.org/1999/02/22-rdf-syntax-ns#">
      <rdf:Description rdf:about=""/>
   </rdf:RDF>
</x:xmpmeta>
                                                                                                    
                                                                                                    
                                                                                                    
                                                                                                    
                                                                                                    
                                                                                                    
                                                                                                    
                                                                                                    
                                                                                                    
                                                                                                    
                                                                                                    
                                                                                                    
                                                                                                    
                                                                                                    
                                                                                                    
                                                                                                    
                                                                                                    
                                                                                                    
                                                                                                    
                                                                                                    
                           
<?xpacket end="w"?></metadata>
<defs>
    <style>
      .cls-1 {
        fill-rule: evenodd;
      }
    </style>
  </defs>
  <path id="Forma_1" data-name="Forma 1" class="cls-1" d="M529.4,338.873a18.841,18.841,0,0,0-8.875-2.253,19.223,19.223,0,0,0-19.073,19.368,19.535,19.535,0,0,0,5.408,13.519l-0.8,5.757a0.762,0.762,0,0,0,.615.88,0.741,0.741,0,0,0,.543-0.117l4.329-2.916a18.925,18.925,0,0,0,25.778-8.053A19.525,19.525,0,0,0,529.4,338.873Zm3.625,29.656a17.386,17.386,0,0,1-21.136,3.024,0.739,0.739,0,0,0-.752,0l-3.39,2.237,0.654-4.436a0.771,0.771,0,0,0-.218-0.649,18.044,18.044,0,0,1-.173-25.235,17.374,17.374,0,0,1,24.842-.176A18.044,18.044,0,0,1,533.025,368.529Zm-8.192-5.681h-0.624V351.563a0.757,0.757,0,0,0-.752-0.763H516.97a0.757,0.757,0,0,0-.752.763v2.749a0.757,0.757,0,0,0,.752.763H517.6v7.773H516.97a0.758,0.758,0,0,0-.752.764v2.749a0.758,0.758,0,0,0,.752.763h7.863a0.757,0.757,0,0,0,.751-0.763v-2.749A0.757,0.757,0,0,0,524.833,362.848Zm-7.111,2.749v-1.222h0.631a0.757,0.757,0,0,0,.752-0.763v-9.3a0.758,0.758,0,0,0-.752-0.764h-0.631v-1.221H522.7v11.285a0.757,0.757,0,0,0,.751.763h0.624l0.008,1.222h-6.359Zm2.8-22.257a3.2,3.2,0,1,0,3.15,3.2A3.174,3.174,0,0,0,520.525,343.34Zm0,4.879a1.676,1.676,0,0,1-.007-3.352h0.007v0.007A1.673,1.673,0,0,1,520.525,348.219Z" transform="translate(-501.438 -336.625)"/>
</svg>
