<svg xmlns="http://www.w3.org/2000/svg" xmlns:xlink="http://www.w3.org/1999/xlink" width="13" height="10" viewBox="0 0 13 10">
  <metadata><?xpacket begin="﻿" id="W5M0MpCehiHzreSzNTczkc9d"?>
<x:xmpmeta xmlns:x="adobe:ns:meta/" x:xmptk="Adobe XMP Core 5.6-c142 79.160924, 2017/07/13-01:06:39        ">
   <rdf:RDF xmlns:rdf="http://www.w3.org/1999/02/22-rdf-syntax-ns#">
      <rdf:Description rdf:about=""/>
   </rdf:RDF>
</x:xmpmeta>
                                                                                                    
                                                                                                    
                                                                                                    
                                                                                                    
                                                                                                    
                                                                                                    
                                                                                                    
                                                                                                    
                                                                                                    
                                                                                                    
                                                                                                    
                                                                                                    
                                                                                                    
                                                                                                    
                                                                                                    
                                                                                                    
                                                                                                    
                                                                                                    
                                                                                                    
                                                                                                    
                           
<?xpacket end="w"?></metadata>
<defs>
    <style>
      .cls-1 {
        fill-rule: evenodd;
        filter: url(#filter);
      }
    </style>
    <filter id="filter" x="585" y="43" width="13" height="10" filterUnits="userSpaceOnUse">
      <feFlood result="flood" flood-color="#fff"/>
      <feComposite result="composite" operator="in" in2="SourceGraphic"/>
      <feBlend result="blend" in2="SourceGraphic"/>
    </filter>
  </defs>
  <path class="cls-1" d="M596.413,43H586.59A1.6,1.6,0,0,0,585,44.607v6.786A1.6,1.6,0,0,0,586.59,53h9.82A1.6,1.6,0,0,0,598,51.393V44.609A1.6,1.6,0,0,0,596.413,43Zm0.863,8.393a0.869,0.869,0,0,1-.863.873H586.59a0.87,0.87,0,0,1-.864-0.873V44.609a0.87,0.87,0,0,1,.864-0.873h9.82a0.87,0.87,0,0,1,.864.873v6.783h0ZM593.2,47.916l3.18-2.882a0.372,0.372,0,0,0,.027-0.519,0.362,0.362,0,0,0-.514-0.027l-4.384,3.978-0.856-.772a0.017,0.017,0,0,1,0-.008,0.587,0.587,0,0,0-.059-0.052l-3.481-3.148a0.36,0.36,0,0,0-.514.03,0.369,0.369,0,0,0,.03.519l3.217,2.907-3.2,3.032a0.369,0.369,0,0,0,.251.636,0.362,0.362,0,0,0,.247-0.1l3.252-3.075,0.882,0.8a0.359,0.359,0,0,0,.484,0l0.907-.821,3.233,3.1a0.358,0.358,0,0,0,.25.1,0.362,0.362,0,0,0,.264-0.114,0.371,0.371,0,0,0-.014-0.519Z" transform="translate(-585 -43)"/>
</svg>
