<svg id="map-icon" xmlns="http://www.w3.org/2000/svg" xmlns:xlink="http://www.w3.org/1999/xlink" width="9" height="12" viewBox="0 0 9 12">
  <metadata><?xpacket begin="﻿" id="W5M0MpCehiHzreSzNTczkc9d"?>
<x:xmpmeta xmlns:x="adobe:ns:meta/" x:xmptk="Adobe XMP Core 5.6-c142 79.160924, 2017/07/13-01:06:39        ">
   <rdf:RDF xmlns:rdf="http://www.w3.org/1999/02/22-rdf-syntax-ns#">
      <rdf:Description rdf:about=""/>
   </rdf:RDF>
</x:xmpmeta>
                                                                                                    
                                                                                                    
                                                                                                    
                                                                                                    
                                                                                                    
                                                                                                    
                                                                                                    
                                                                                                    
                                                                                                    
                                                                                                    
                                                                                                    
                                                                                                    
                                                                                                    
                                                                                                    
                                                                                                    
                                                                                                    
                                                                                                    
                                                                                                    
                                                                                                    
                                                                                                    
                           
<?xpacket end="w"?></metadata>
<defs>
    <style>
      .cls-1 {
        fill-rule: evenodd;
        filter: url(#filter);
      }

      .cls-2 {
        fill: #ffde00;
        stroke: #ffde00;
        stroke-width: 1px;
      }
    </style>
    <filter id="filter" x="390" y="21" width="9" height="12" filterUnits="userSpaceOnUse">
      <feFlood result="flood" flood-color="#fff"/>
      <feComposite result="composite" operator="in" in2="SourceGraphic"/>
      <feBlend result="blend" in2="SourceGraphic"/>
    </filter>
  </defs>
  <path id="Forma_1" data-name="Forma 1" class="cls-1" d="M394.5,21a4.371,4.371,0,0,0-4.5,4.219,4.013,4.013,0,0,0,.672,2.219l3.572,5.4a0.381,0.381,0,0,0,.318.166h0a0.381,0.381,0,0,0,.319-0.171l3.481-5.449A4.02,4.02,0,0,0,399,25.219,4.371,4.371,0,0,0,394.5,21Zm3.222,6.019-3.165,4.954-3.248-4.907a3.348,3.348,0,0,1-.564-1.848,3.761,3.761,0,0,1,7.507,0A3.353,3.353,0,0,1,397.722,27.019Zm-5.472-1.8,4.5,0" transform="translate(-390 -21)"/>
  <circle id="Эллипс_5" data-name="Эллипс 5" class="cls-2" cx="4.531" cy="4.219" r="2.094"/>
</svg>
