<svg xmlns="http://www.w3.org/2000/svg" width="22" height="22" viewBox="0 0 22 22">
  <metadata><?xpacket begin="﻿" id="W5M0MpCehiHzreSzNTczkc9d"?>
<x:xmpmeta xmlns:x="adobe:ns:meta/" x:xmptk="Adobe XMP Core 5.6-c142 79.160924, 2017/07/13-01:06:39        ">
   <rdf:RDF xmlns:rdf="http://www.w3.org/1999/02/22-rdf-syntax-ns#">
      <rdf:Description rdf:about=""/>
   </rdf:RDF>
</x:xmpmeta>
                                                                                                    
                                                                                                    
                                                                                                    
                                                                                                    
                                                                                                    
                                                                                                    
                                                                                                    
                                                                                                    
                                                                                                    
                                                                                                    
                                                                                                    
                                                                                                    
                                                                                                    
                                                                                                    
                                                                                                    
                                                                                                    
                                                                                                    
                                                                                                    
                                                                                                    
                                                                                                    
                           
<?xpacket end="w"?></metadata>
<defs>
    <style>
      .cls-1 {
        fill-rule: evenodd;
      }
    </style>
  </defs>
  <path id="Forma_1" data-name="Forma 1" class="cls-1" d="M1471,581a11,11,0,1,0,11,11A11.009,11.009,0,0,0,1471,581Zm0,21.154A10.154,10.154,0,1,1,1481.15,592,10.162,10.162,0,0,1,1471,602.154Zm4.11-14.261a0.425,0.425,0,0,0-.6,0L1471,591.4l-3.51-3.509a0.425,0.425,0,0,0-.6,0,0.433,0.433,0,0,0,0,.6L1470.4,592l-3.51,3.508a0.424,0.424,0,0,0,.3.723,0.419,0.419,0,0,0,.3-0.124L1471,592.6l3.51,3.509a0.419,0.419,0,0,0,.3.124,0.424,0.424,0,0,0,.3-0.723L1471.6,592l3.51-3.509A0.433,0.433,0,0,0,1475.11,587.893Z" transform="translate(-1460 -581)"/>
</svg>
