<svg xmlns="http://www.w3.org/2000/svg" width="53" height="49" viewBox="0 0 53 49">
  <metadata><?xpacket begin="﻿" id="W5M0MpCehiHzreSzNTczkc9d"?>
<x:xmpmeta xmlns:x="adobe:ns:meta/" x:xmptk="Adobe XMP Core 5.6-c142 79.160924, 2017/07/13-01:06:39        ">
   <rdf:RDF xmlns:rdf="http://www.w3.org/1999/02/22-rdf-syntax-ns#">
      <rdf:Description rdf:about=""/>
   </rdf:RDF>
</x:xmpmeta>
                                                                                                    
                                                                                                    
                                                                                                    
                                                                                                    
                                                                                                    
                                                                                                    
                                                                                                    
                                                                                                    
                                                                                                    
                                                                                                    
                                                                                                    
                                                                                                    
                                                                                                    
                                                                                                    
                                                                                                    
                                                                                                    
                                                                                                    
                                                                                                    
                                                                                                    
                                                                                                    
                           
<?xpacket end="w"?></metadata>
<defs>
    <style>
      .cls-1 {
        fill-rule: evenodd;
      }
    </style>
  </defs>
  <path id="Forma_1" data-name="Forma 1" class="cls-1" d="M487.748,941.969a3.253,3.253,0,0,0-4.218-1.813c-0.086.034-.17,0.072-0.253,0.113l-2.409,1.2-4.917-6.533a0.893,0.893,0,0,0-.219-0.206l-5.365-3.564a0.893,0.893,0,0,0-.358-0.139l-11.623-1.782a0.9,0.9,0,0,0-.768.25l-6.665,6.616a2.844,2.844,0,0,0-.008,4.032l0.008,0.008a2.877,2.877,0,0,0,3.908.128l5.4-4.709,4.793,1.365-4.011,8.781-6.153,8.759-7.314,6.558a3.173,3.173,0,1,0,4.143,4.807l8.058-6.575,4.816-4.8,6.109,4.566-1.359,9.451a3.073,3.073,0,0,0,.724,2.454,3.188,3.188,0,0,0,5.5-1.5l2.337-12.423a0.888,0.888,0,0,0-.29-0.834l-6.7-5.834,2.851-7.81,5.263,5.994a0.9,0.9,0,0,0,1.033.228L486.1,946.1A3.167,3.167,0,0,0,487.748,941.969Zm-2.367,2.5-5.435,2.395-5.827-6.635a0.9,0.9,0,0,0-1.261-.083,0.881,0.881,0,0,0-.251.366l-3.577,9.8a0.889,0.889,0,0,0,.251.974l6.77,5.9-2.246,11.923a1.383,1.383,0,0,1-1.4,1.105,1.3,1.3,0,0,1-1.3-1.3,1.407,1.407,0,0,1,.013-0.183l1.431-9.973a0.889,0.889,0,0,0-.349-0.839l-7.153-5.345a0.9,0.9,0,0,0-1.168.082l-5.3,5.286-7.991,6.516a1.394,1.394,0,0,1-1.957-.183,1.38,1.38,0,0,1,.147-1.918l7.389-6.627a0.917,0.917,0,0,0,.134-0.151l6.259-8.91a0.858,0.858,0,0,0,.081-0.141l4.471-9.8a0.89,0.89,0,0,0-.444-1.18,0.919,0.919,0,0,0-.124-0.045l-6.259-1.782a0.89,0.89,0,0,0-.835.186l-5.767,5.028a1.072,1.072,0,1,1-1.467-1.564l6.348-6.3,10.981,1.684,5.068,3.369,5.276,7.006A0.9,0.9,0,0,0,481,943.4l3.076-1.537a1.45,1.45,0,0,1,1.163-.06,1.5,1.5,0,0,1,.868.891A1.381,1.381,0,0,1,485.381,944.471Zm-45.016-16.126h11.623v1.782H440.365v-1.782Zm-3.577,0h1.788v1.782h-1.788v-1.782Zm7.153,7.128h1.788v1.782h-1.788v-1.782Zm-8.941,0h7.153v1.782H435v-1.782Zm4.471,7.127h8.941v1.782h-8.941V942.6Zm-2.683,7.128h15.2v1.781h-15.2v-1.781Zm1.788,7.127h7.153v1.782h-7.153v-1.782Zm-3.576,0h1.788v1.782H435v-1.782Zm1.788,7.127h6.259v1.782h-6.259v-1.782ZM479.706,923h-4.024a4.9,4.9,0,1,0,4.918,4.9v-4.009A0.892,0.892,0,0,0,479.706,923Zm-0.894,4.9a3.119,3.119,0,0,1-5.576,1.921,8.207,8.207,0,0,1,5.576-2.356V927.9Zm0-2.217a9.988,9.988,0,0,0-6.247,2.341c0-.042-0.012-0.081-0.012-0.124a3.124,3.124,0,0,1,3.129-3.118h3.13v0.9Z" transform="translate(-435 -923)"/>
</svg>
